@startuml

abstract class AbstractList
abstract AbstractCollection
interface List
interface Collection

List <|-- AbstractList
Collection <|-- AbstractCollection

Collection <|- List
AbstractCollection <|- AbstractList
AbstractList <|-- ArrayList

class ArrayList {
+ Object[] elementData
+ beat()
# hit
# size()
- int a
# a
}

enum TimeUnit {
DAYS
HOURS
MINUTES
SECONDS
}

@enduml